ffmpeg started on 2026-01-13 at 09:34:01
Report written to "D:\Convert\FFMetrics\reports\ssim_report-6.txt"
Log level: 32
Command line:
ffmpeg -hide_banner -nostdin -r 24000/1001 -i "F:\\Convert\\files\\[DC] Make Heroine ga Oosugiru - 07_Telegram_HEVC(101).mkv" -r 24000/1001 -i "F:\\Convert\\files\\[DC] Make Heroine ga Oosugiru - 07_Telegram.mp4" -lavfi "[0:v]settb=AVTB,setpts=PTS-STARTPTS,format=pix_fmts=yuv420p10le,fps=24000/1001,scale=1920:1080:flags=lanczos:param0=3:out_range=limited:out_color_matrix=bt709:out_chroma_loc=left,setsar=1/1,setdar=(1920/1080)*(1/1),colorspace=format=yuv420p10:range=tv:primaries=bt709:trc=bt709:space=bt709:fast=0[main];[1:v]settb=AVTB,setpts=PTS-STARTPTS,format=pix_fmts=yuv420p,fps=24000/1001,scale=1920:1080:flags=lanczos:param0=3:out_range=limited:out_color_matrix=bt709:out_chroma_loc=left,setsar=1.000,setdar=1.778,colorspace=format=yuv420p:range=tv:primaries=bt709:trc=bt709:space=bt709:fast=0[ref];[main][ref]ssim=eof_action=endall:stats_file='D\\:/Convert/FFMetrics/logs/ssim_logfile-6.txt'" -f null -
Input #0, matroska,webm, from 'F:\Convert\files\[DC] Make Heroine ga Oosugiru - 07_Telegram_HEVC(101).mkv':
  Metadata:
    COMPATIBLE_BRANDS: isomiso2avc1mp41
    MAJOR_BRAND     : isom
    MINOR_VERSION   : 512
    ENCODER         : Lavf61.7.100
  Duration: 00:24:06.79, start: -0.021000, bitrate: 1010 kb/s
  Stream #0:0: Video: hevc (Main 10), yuv420p10le(tv, bt709, progressive), 1920x1080 [SAR 1:1 DAR 16:9], 23.98 fps, 23.98 tbr, 1k tbn (default)
      Metadata:
        HANDLER_NAME    : VideoHandler
        VENDOR_ID       : [0][0][0][0]
        ENCODER         : Lavc61.19.100 libx265
        BPS             : 812916
        DURATION        : 00:24:06.569708333
        NUMBER_OF_FRAMES: 34683
        NUMBER_OF_BYTES : 146992499
        _STATISTICS_WRITING_APP: mkvpropedit v94.0 ('Initiate') 64-bit
        _STATISTICS_WRITING_DATE_UTC: 2026-01-12 11:23:53
        _STATISTICS_TAGS: BPS DURATION NUMBER_OF_FRAMES NUMBER_OF_BYTES
  Stream #0:1: Audio: aac (LC), 48000 Hz, stereo, fltp (default)
      Metadata:
        HANDLER_NAME    : SoundHandler
        VENDOR_ID       : [0][0][0][0]
        ENCODER         : Lavc61.19.100 aac
        BPS             : 193194
        DURATION        : 00:24:06.784000000
        NUMBER_OF_FRAMES: 67819
        NUMBER_OF_BYTES : 34938755
        _STATISTICS_WRITING_APP: mkvpropedit v94.0 ('Initiate') 64-bit
        _STATISTICS_WRITING_DATE_UTC: 2026-01-12 11:23:53
        _STATISTICS_TAGS: BPS DURATION NUMBER_OF_FRAMES NUMBER_OF_BYTES
Input #1, mov,mp4,m4a,3gp,3g2,mj2, from 'F:\Convert\files\[DC] Make Heroine ga Oosugiru - 07_Telegram.mp4':
  Metadata:
    major_brand     : isom
    minor_version   : 512
    compatible_brands: isomiso2avc1mp41
    encoder         : Lavf60.16.100
  Duration: 00:24:06.74, start: 0.000000, bitrate: 3764 kb/s
  Stream #1:0[0x1](und): Video: h264 (High) (avc1 / 0x31637661), yuv420p(tv, bt709, progressive), 1920x1080 [SAR 1:1 DAR 16:9], 3616 kb/s, 23.98 fps, 23.98 tbr, 24k tbn (default)
      Metadata:
        handler_name    : VideoHandler
        vendor_id       : [0][0][0][0]
        encoder         : Lavc60.31.102 h264_qsv
  Stream #1:1[0x2](und): Audio: aac (HE-AACv2) (mp4a / 0x6134706D), 48000 Hz, stereo, fltp, 144 kb/s (default)
      Metadata:
        handler_name    : SoundHandler
        vendor_id       : [0][0][0][0]
Stream mapping:
  Stream #0:0 (hevc) -> settb:default
  Stream #1:0 (h264) -> settb:default
  ssim:default -> Stream #0:0 (wrapped_avframe)
  Stream #0:1 -> #0:1 (aac (native) -> pcm_s16le (native))
Output #0, null, to 'pipe:':
  Metadata:
    COMPATIBLE_BRANDS: isomiso2avc1mp41
    MAJOR_BRAND     : isom
    MINOR_VERSION   : 512
    encoder         : Lavf61.7.100
  Stream #0:0: Video: wrapped_avframe, yuv420p10le(tv, bt709, progressive), 1920x1080 [SAR 1:1 DAR 16:9], q=2-31, 200 kb/s, 23.98 fps, 23.98 tbn
      Metadata:
        encoder         : Lavc61.19.100 wrapped_avframe
  Stream #0:1: Audio: pcm_s16le, 48000 Hz, stereo, s16, 1536 kb/s (default)
      Metadata:
        HANDLER_NAME    : SoundHandler
        VENDOR_ID       : [0][0][0][0]
        _STATISTICS_TAGS: BPS DURATION NUMBER_OF_FRAMES NUMBER_OF_BYTES
        BPS             : 193194
        DURATION        : 00:24:06.784000000
        NUMBER_OF_FRAMES: 67819
        NUMBER_OF_BYTES : 34938755
        _STATISTICS_WRITING_APP: mkvpropedit v94.0 ('Initiate') 64-bit
        _STATISTICS_WRITING_DATE_UTC: 2026-01-12 11:23:53
        encoder         : Lavc61.19.100 pcm_s16le
frame=  123 fps=0.0 q=-0.0 size=N/A time=00:00:05.13 bitrate=N/A speed=9.98x    frame=  308 fps=302 q=-0.0 size=N/A time=00:00:12.84 bitrate=N/A speed=12.6x    frame=  504 fps=326 q=-0.0 size=N/A time=00:00:21.02 bitrate=N/A speed=13.6x    frame=  707 fps=344 q=-0.0 size=N/A time=00:00:29.48 bitrate=N/A speed=14.3x    frame=  889 fps=346 q=-0.0 size=N/A time=00:00:37.07 bitrate=N/A speed=14.4x    frame= 1033 fps=334 q=-0.0 size=N/A time=00:00:43.08 bitrate=N/A speed=13.9x    frame= 1202 fps=333 q=-0.0 size=N/A time=00:00:50.13 bitrate=N/A speed=13.9x    frame= 1361 fps=331 q=-0.0 size=N/A time=00:00:56.76 bitrate=N/A speed=13.8x    frame= 1530 fps=330 q=-0.0 size=N/A time=00:01:03.81 bitrate=N/A speed=13.7x    frame= 1674 fps=325 q=-0.0 size=N/A time=00:01:09.81 bitrate=N/A speed=13.5x    frame= 1844 fps=325 q=-0.0 size=N/A time=00:01:16.91 bitrate=N/A speed=13.6x    frame= 2012 fps=326 q=-0.0 size=N/A time=00:01:23.91 bitrate=N/A speed=13.6x    frame= 2122 fps=317 q=-0.0 size=N/A time=00:01:28.50 bitrate=N/A speed=13.2x    frame= 2277 fps=316 q=-0.0 size=N/A time=00:01:34.96 bitrate=N/A speed=13.2x    frame= 2429 fps=314 q=-0.0 size=N/A time=00:01:41.30 bitrate=N/A speed=13.1x    frame= 2562 fps=310 q=-0.0 size=N/A time=00:01:46.85 bitrate=N/A speed=12.9x    frame= 2730 fps=312 q=-0.0 size=N/A time=00:01:53.86 bitrate=N/A speed=  13x    frame= 2900 fps=313 q=-0.0 size=N/A time=00:02:00.95 bitrate=N/A speed=  13x    frame= 3082 fps=315 q=-0.0 size=N/A time=00:02:08.54 bitrate=N/A speed=13.1x    frame= 3281 fps=318 q=-0.0 size=N/A time=00:02:16.84 bitrate=N/A speed=13.3x    frame= 3479 fps=321 q=-0.0 size=N/A time=00:02:25.10 bitrate=N/A speed=13.4x    frame= 3667 fps=323 q=-0.0 size=N/A time=00:02:32.94 bitrate=N/A speed=13.5x    frame= 3863 fps=326 q=-0.0 size=N/A time=00:02:41.11 bitrate=N/A speed=13.6x    frame= 4060 fps=328 q=-0.0 size=N/A time=00:02:49.33 bitrate=N/A speed=13.7x    frame= 4256 fps=330 q=-0.0 size=N/A time=00:02:57.51 bitrate=N/A speed=13.8x    frame= 4444 fps=332 q=-0.0 size=N/A time=00:03:05.35 bitrate=N/A speed=13.8x    frame= 4636 fps=333 q=-0.0 size=N/A time=00:03:13.35 bitrate=N/A speed=13.9x    frame= 4831 fps=335 q=-0.0 size=N/A time=00:03:21.49 bitrate=N/A speed=  14x    frame= 5019 fps=336 q=-0.0 size=N/A time=00:03:29.33 bitrate=N/A speed=  14x    frame= 5209 fps=337 q=-0.0 size=N/A time=00:03:37.25 bitrate=N/A speed=14.1x    frame= 5406 fps=338 q=-0.0 size=N/A time=00:03:45.47 bitrate=N/A speed=14.1x    frame= 5596 fps=339 q=-0.0 size=N/A time=00:03:53.39 bitrate=N/A speed=14.1x    frame= 5783 fps=340 q=-0.0 size=N/A time=00:04:01.19 bitrate=N/A speed=14.2x    frame= 5983 fps=341 q=-0.0 size=N/A time=00:04:09.54 bitrate=N/A speed=14.2x    frame= 6172 fps=342 q=-0.0 size=N/A time=00:04:17.42 bitrate=N/A speed=14.3x    frame= 6359 fps=343 q=-0.0 size=N/A time=00:04:25.22 bitrate=N/A speed=14.3x    frame= 6557 fps=344 q=-0.0 size=N/A time=00:04:33.48 bitrate=N/A speed=14.3x    frame= 6749 fps=345 q=-0.0 size=N/A time=00:04:41.48 bitrate=N/A speed=14.4x    frame= 6949 fps=346 q=-0.0 size=N/A time=00:04:49.83 bitrate=N/A speed=14.4x    frame= 7134 fps=346 q=-0.0 size=N/A time=00:04:57.54 bitrate=N/A speed=14.4x    frame= 7321 fps=346 q=-0.0 size=N/A time=00:05:05.34 bitrate=N/A speed=14.4x    frame= 7505 fps=347 q=-0.0 size=N/A time=00:05:13.02 bitrate=N/A speed=14.5x    frame= 7694 fps=347 q=-0.0 size=N/A time=00:05:20.90 bitrate=N/A speed=14.5x    frame= 7878 fps=347 q=-0.0 size=N/A time=00:05:28.57 bitrate=N/A speed=14.5x    frame= 8059 fps=347 q=-0.0 size=N/A time=00:05:36.12 bitrate=N/A speed=14.5x    frame= 8254 fps=348 q=-0.0 size=N/A time=00:05:44.26 bitrate=N/A speed=14.5x    frame= 8446 fps=349 q=-0.0 size=N/A time=00:05:52.26 bitrate=N/A speed=14.5x    frame= 8634 fps=349 q=-0.0 size=N/A time=00:06:00.10 bitrate=N/A speed=14.6x    frame= 8821 fps=349 q=-0.0 size=N/A time=00:06:07.90 bitrate=N/A speed=14.6x    frame= 9017 fps=350 q=-0.0 size=N/A time=00:06:16.08 bitrate=N/A speed=14.6x    frame= 9213 fps=350 q=-0.0 size=N/A time=00:06:24.25 bitrate=N/A speed=14.6x    frame= 9401 fps=350 q=-0.0 size=N/A time=00:06:32.10 bitrate=N/A speed=14.6x    frame= 9593 fps=351 q=-0.0 size=N/A time=00:06:40.10 bitrate=N/A speed=14.6x    frame= 9788 fps=351 q=-0.0 size=N/A time=00:06:48.24 bitrate=N/A speed=14.7x    frame= 9979 fps=352 q=-0.0 size=N/A time=00:06:56.20 bitrate=N/A speed=14.7x    frame=10164 fps=352 q=-0.0 size=N/A time=00:07:03.92 bitrate=N/A speed=14.7x    frame=10359 fps=352 q=-0.0 size=N/A time=00:07:12.05 bitrate=N/A speed=14.7x    frame=10551 fps=352 q=-0.0 size=N/A time=00:07:20.06 bitrate=N/A speed=14.7x    frame=10739 fps=353 q=-0.0 size=N/A time=00:07:27.90 bitrate=N/A speed=14.7x    frame=10922 fps=353 q=-0.0 size=N/A time=00:07:35.53 bitrate=N/A speed=14.7x    frame=11118 fps=353 q=-0.0 size=N/A time=00:07:43.71 bitrate=N/A speed=14.7x    frame=11294 fps=353 q=-0.0 size=N/A time=00:07:51.05 bitrate=N/A speed=14.7x    frame=11482 fps=353 q=-0.0 size=N/A time=00:07:58.89 bitrate=N/A speed=14.7x    frame=11675 fps=353 q=-0.0 size=N/A time=00:08:06.94 bitrate=N/A speed=14.7x    frame=11861 fps=354 q=-0.0 size=N/A time=00:08:14.70 bitrate=N/A speed=14.7x    frame=12056 fps=354 q=-0.0 size=N/A time=00:08:22.83 bitrate=N/A speed=14.8x    frame=12252 fps=354 q=-0.0 size=N/A time=00:08:31.01 bitrate=N/A speed=14.8x    frame=12438 fps=354 q=-0.0 size=N/A time=00:08:38.76 bitrate=N/A speed=14.8x    frame=12627 fps=355 q=-0.0 size=N/A time=00:08:46.65 bitrate=N/A speed=14.8x    frame=12824 fps=355 q=-0.0 size=N/A time=00:08:54.86 bitrate=N/A speed=14.8x    frame=13017 fps=355 q=-0.0 size=N/A time=00:09:02.91 bitrate=N/A speed=14.8x    frame=13203 fps=355 q=-0.0 size=N/A time=00:09:10.67 bitrate=N/A speed=14.8x    frame=13392 fps=356 q=-0.0 size=N/A time=00:09:18.55 bitrate=N/A speed=14.8x    frame=13584 fps=356 q=-0.0 size=N/A time=00:09:26.56 bitrate=N/A speed=14.8x    frame=13771 fps=356 q=-0.0 size=N/A time=00:09:34.36 bitrate=N/A speed=14.8x    frame=13966 fps=356 q=-0.0 size=N/A time=00:09:42.49 bitrate=N/A speed=14.9x    frame=14138 fps=356 q=-0.0 size=N/A time=00:09:49.67 bitrate=N/A speed=14.8x    frame=14333 fps=356 q=-0.0 size=N/A time=00:09:57.80 bitrate=N/A speed=14.9x    frame=14519 fps=356 q=-0.0 size=N/A time=00:10:05.56 bitrate=N/A speed=14.9x    frame=14707 fps=356 q=-0.0 size=N/A time=00:10:13.40 bitrate=N/A speed=14.9x    frame=14899 fps=356 q=-0.0 size=N/A time=00:10:21.41 bitrate=N/A speed=14.9x    frame=15080 fps=356 q=-0.0 size=N/A time=00:10:28.96 bitrate=N/A speed=14.9x    frame=15242 fps=356 q=-0.0 size=N/A time=00:10:35.71 bitrate=N/A speed=14.8x    frame=15432 fps=356 q=-0.0 size=N/A time=00:10:43.64 bitrate=N/A speed=14.9x    frame=15625 fps=356 q=-0.0 size=N/A time=00:10:51.69 bitrate=N/A speed=14.9x    frame=15819 fps=356 q=-0.0 size=N/A time=00:10:59.78 bitrate=N/A speed=14.9x    frame=16013 fps=357 q=-0.0 size=N/A time=00:11:07.87 bitrate=N/A speed=14.9x    frame=16204 fps=357 q=-0.0 size=N/A time=00:11:15.84 bitrate=N/A speed=14.9x    frame=16402 fps=357 q=-0.0 size=N/A time=00:11:24.10 bitrate=N/A speed=14.9x    frame=16594 fps=357 q=-0.0 size=N/A time=00:11:32.10 bitrate=N/A speed=14.9x    frame=16783 fps=357 q=-0.0 size=N/A time=00:11:39.99 bitrate=N/A speed=14.9x    frame=16976 fps=358 q=-0.0 size=N/A time=00:11:48.04 bitrate=N/A speed=14.9x    frame=17176 fps=358 q=-0.0 size=N/A time=00:11:56.38 bitrate=N/A speed=14.9x    frame=17372 fps=358 q=-0.0 size=N/A time=00:12:04.55 bitrate=N/A speed=14.9x    frame=17557 fps=358 q=-0.0 size=N/A time=00:12:12.27 bitrate=N/A speed=14.9x    frame=17753 fps=358 q=-0.0 size=N/A time=00:12:20.44 bitrate=N/A speed=14.9x    frame=17940 fps=358 q=-0.0 size=N/A time=00:12:28.24 bitrate=N/A speed=14.9x    frame=18134 fps=359 q=-0.0 size=N/A time=00:12:36.33 bitrate=N/A speed=  15x    frame=18308 fps=358 q=-0.0 size=N/A time=00:12:43.59 bitrate=N/A speed=14.9x    frame=18504 fps=359 q=-0.0 size=N/A time=00:12:51.77 bitrate=N/A speed=  15x    frame=18692 fps=359 q=-0.0 size=N/A time=00:12:59.61 bitrate=N/A speed=  15x    frame=18887 fps=359 q=-0.0 size=N/A time=00:13:07.74 bitrate=N/A speed=  15x    frame=19088 fps=359 q=-0.0 size=N/A time=00:13:16.12 bitrate=N/A speed=  15x    frame=19282 fps=359 q=-0.0 size=N/A time=00:13:24.22 bitrate=N/A speed=  15x    frame=19476 fps=359 q=-0.0 size=N/A time=00:13:32.31 bitrate=N/A speed=  15x    frame=19676 fps=360 q=-0.0 size=N/A time=00:13:40.65 bitrate=N/A speed=  15x    frame=19870 fps=360 q=-0.0 size=N/A time=00:13:48.74 bitrate=N/A speed=  15x    frame=20067 fps=360 q=-0.0 size=N/A time=00:13:56.96 bitrate=N/A speed=  15x    frame=20263 fps=360 q=-0.0 size=N/A time=00:14:05.13 bitrate=N/A speed=  15x    frame=20452 fps=360 q=-0.0 size=N/A time=00:14:13.01 bitrate=N/A speed=  15x    frame=20631 fps=360 q=-0.0 size=N/A time=00:14:20.48 bitrate=N/A speed=  15x    frame=20822 fps=360 q=-0.0 size=N/A time=00:14:28.45 bitrate=N/A speed=  15x    frame=21026 fps=360 q=-0.0 size=N/A time=00:14:36.95 bitrate=N/A speed=  15x    frame=21213 fps=361 q=-0.0 size=N/A time=00:14:44.75 bitrate=N/A speed=  15x    frame=21407 fps=361 q=-0.0 size=N/A time=00:14:52.85 bitrate=N/A speed=  15x    frame=21606 fps=361 q=-0.0 size=N/A time=00:15:01.15 bitrate=N/A speed=  15x    frame=21796 fps=361 q=-0.0 size=N/A time=00:15:09.07 bitrate=N/A speed=15.1x    frame=21989 fps=361 q=-0.0 size=N/A time=00:15:17.12 bitrate=N/A speed=15.1x    frame=22188 fps=361 q=-0.0 size=N/A time=00:15:25.42 bitrate=N/A speed=15.1x    frame=22385 fps=361 q=-0.0 size=N/A time=00:15:33.64 bitrate=N/A speed=15.1x    frame=22577 fps=362 q=-0.0 size=N/A time=00:15:41.64 bitrate=N/A speed=15.1x    frame=22770 fps=362 q=-0.0 size=N/A time=00:15:49.69 bitrate=N/A speed=15.1x    frame=22959 fps=362 q=-0.0 size=N/A time=00:15:57.58 bitrate=N/A speed=15.1x    frame=23157 fps=362 q=-0.0 size=N/A time=00:16:05.83 bitrate=N/A speed=15.1x    frame=23349 fps=362 q=-0.0 size=N/A time=00:16:13.84 bitrate=N/A speed=15.1x    frame=23543 fps=362 q=-0.0 size=N/A time=00:16:21.93 bitrate=N/A speed=15.1x    frame=23731 fps=362 q=-0.0 size=N/A time=00:16:29.78 bitrate=N/A speed=15.1x    frame=23927 fps=362 q=-0.0 size=N/A time=00:16:37.95 bitrate=N/A speed=15.1x    frame=24120 fps=362 q=-0.0 size=N/A time=00:16:46.00 bitrate=N/A speed=15.1x    frame=24314 fps=362 q=-0.0 size=N/A time=00:16:54.09 bitrate=N/A speed=15.1x    frame=24506 fps=362 q=-0.0 size=N/A time=00:17:02.10 bitrate=N/A speed=15.1x    frame=24700 fps=363 q=-0.0 size=N/A time=00:17:10.19 bitrate=N/A speed=15.1x    frame=24891 fps=363 q=-0.0 size=N/A time=00:17:18.16 bitrate=N/A speed=15.1x    frame=25092 fps=363 q=-0.0 size=N/A time=00:17:26.54 bitrate=N/A speed=15.1x    frame=25286 fps=363 q=-0.0 size=N/A time=00:17:34.63 bitrate=N/A speed=15.1x    frame=25474 fps=363 q=-0.0 size=N/A time=00:17:42.47 bitrate=N/A speed=15.1x    frame=25670 fps=363 q=-0.0 size=N/A time=00:17:50.65 bitrate=N/A speed=15.1x    frame=25868 fps=363 q=-0.0 size=N/A time=00:17:58.91 bitrate=N/A speed=15.1x    frame=26058 fps=363 q=-0.0 size=N/A time=00:18:06.83 bitrate=N/A speed=15.2x    frame=26251 fps=363 q=-0.0 size=N/A time=00:18:14.88 bitrate=N/A speed=15.2x    frame=26441 fps=363 q=-0.0 size=N/A time=00:18:22.81 bitrate=N/A speed=15.2x    frame=26639 fps=364 q=-0.0 size=N/A time=00:18:31.06 bitrate=N/A speed=15.2x    frame=26832 fps=364 q=-0.0 size=N/A time=00:18:39.11 bitrate=N/A speed=15.2x    frame=27009 fps=364 q=-0.0 size=N/A time=00:18:46.50 bitrate=N/A speed=15.2x    frame=27197 fps=363 q=-0.0 size=N/A time=00:18:54.34 bitrate=N/A speed=15.2x    frame=27382 fps=363 q=-0.0 size=N/A time=00:19:02.05 bitrate=N/A speed=15.2x    frame=27567 fps=363 q=-0.0 size=N/A time=00:19:09.77 bitrate=N/A speed=15.2x    frame=27754 fps=363 q=-0.0 size=N/A time=00:19:17.57 bitrate=N/A speed=15.2x    frame=27949 fps=363 q=-0.0 size=N/A time=00:19:25.70 bitrate=N/A speed=15.2x    frame=28136 fps=363 q=-0.0 size=N/A time=00:19:33.50 bitrate=N/A speed=15.2x    frame=28328 fps=364 q=-0.0 size=N/A time=00:19:41.51 bitrate=N/A speed=15.2x    frame=28520 fps=364 q=-0.0 size=N/A time=00:19:49.52 bitrate=N/A speed=15.2x    frame=28707 fps=364 q=-0.0 size=N/A time=00:19:57.32 bitrate=N/A speed=15.2x    frame=28882 fps=363 q=-0.0 size=N/A time=00:20:04.62 bitrate=N/A speed=15.2x    frame=29047 fps=363 q=-0.0 size=N/A time=00:20:11.50 bitrate=N/A speed=15.1x    frame=29232 fps=363 q=-0.0 size=N/A time=00:20:19.21 bitrate=N/A speed=15.1x    frame=29409 fps=363 q=-0.0 size=N/A time=00:20:26.60 bitrate=N/A speed=15.1x    frame=29586 fps=363 q=-0.0 size=N/A time=00:20:33.98 bitrate=N/A speed=15.1x    frame=29763 fps=363 q=-0.0 size=N/A time=00:20:41.36 bitrate=N/A speed=15.1x    frame=29943 fps=363 q=-0.0 size=N/A time=00:20:48.87 bitrate=N/A speed=15.1x    frame=30112 fps=362 q=-0.0 size=N/A time=00:20:55.92 bitrate=N/A speed=15.1x    frame=30301 fps=362 q=-0.0 size=N/A time=00:21:03.80 bitrate=N/A speed=15.1x    frame=30491 fps=363 q=-0.0 size=N/A time=00:21:11.72 bitrate=N/A speed=15.1x    frame=30682 fps=363 q=-0.0 size=N/A time=00:21:19.69 bitrate=N/A speed=15.1x    frame=30873 fps=363 q=-0.0 size=N/A time=00:21:27.66 bitrate=N/A speed=15.1x    frame=31062 fps=363 q=-0.0 size=N/A time=00:21:35.54 bitrate=N/A speed=15.1x    frame=31258 fps=363 q=-0.0 size=N/A time=00:21:43.71 bitrate=N/A speed=15.1x    frame=31438 fps=363 q=-0.0 size=N/A time=00:21:51.22 bitrate=N/A speed=15.1x    frame=31636 fps=363 q=-0.0 size=N/A time=00:21:59.48 bitrate=N/A speed=15.1x    frame=31819 fps=363 q=-0.0 size=N/A time=00:22:07.11 bitrate=N/A speed=15.1x    frame=31998 fps=363 q=-0.0 size=N/A time=00:22:14.58 bitrate=N/A speed=15.1x    frame=32192 fps=363 q=-0.0 size=N/A time=00:22:22.67 bitrate=N/A speed=15.1x    frame=32384 fps=363 q=-0.0 size=N/A time=00:22:30.68 bitrate=N/A speed=15.1x    frame=32571 fps=363 q=-0.0 size=N/A time=00:22:38.48 bitrate=N/A speed=15.1x    frame=32731 fps=362 q=-0.0 size=N/A time=00:22:45.15 bitrate=N/A speed=15.1x    frame=32898 fps=362 q=-0.0 size=N/A time=00:22:52.12 bitrate=N/A speed=15.1x    frame=33084 fps=362 q=-0.0 size=N/A time=00:22:59.87 bitrate=N/A speed=15.1x    frame=33268 fps=362 q=-0.0 size=N/A time=00:23:07.55 bitrate=N/A speed=15.1x    frame=33450 fps=362 q=-0.0 size=N/A time=00:23:15.14 bitrate=N/A speed=15.1x    frame=33600 fps=362 q=-0.0 size=N/A time=00:23:21.40 bitrate=N/A speed=15.1x    frame=33749 fps=361 q=-0.0 size=N/A time=00:23:27.61 bitrate=N/A speed=15.1x    frame=33877 fps=361 q=-0.0 size=N/A time=00:23:32.95 bitrate=N/A speed=  15x    frame=34041 fps=361 q=-0.0 size=N/A time=00:23:39.79 bitrate=N/A speed=  15x    frame=34196 fps=360 q=-0.0 size=N/A time=00:23:46.25 bitrate=N/A speed=  15x    frame=34346 fps=360 q=-0.0 size=N/A time=00:23:52.51 bitrate=N/A speed=  15x    frame=34490 fps=359 q=-0.0 size=N/A time=00:23:58.52 bitrate=N/A speed=  15x    frame=34682 fps=359 q=-0.0 size=N/A time=00:24:06.52 bitrate=N/A speed=  15x    [Parsed_ssim_16 @ 0000020253b1f140] SSIM Y:0.994466 (22.569900) U:0.994269 (22.417959) V:0.993914 (22.156891) All:0.994342 (22.473003)
[out#0/null @ 0000020246688a00] video:14903KiB audio:271276KiB subtitle:0KiB other streams:0KiB global headers:0KiB muxing overhead: unknown
frame=34683 fps=359 q=-0.0 Lsize=N/A time=00:24:06.57 bitrate=N/A speed=  15x    
